<svg xmlns="http://www.w3.org/2000/svg" xmlns:xlink="http://www.w3.org/1999/xlink" width="500" zoomAndPan="magnify" viewBox="0 0 375 149.999998" height="200" preserveAspectRatio="xMidYMid meet" version="1.0"><defs><g/><clipPath id="87f0d638e5"><path d="M 0 1.132812 L 190.101562 1.132812 L 190.101562 104.523438 L 0 104.523438 Z M 0 1.132812 " clip-rule="nonzero"/></clipPath><clipPath id="fbe26d0206"><rect x="0" width="338" y="0" height="102"/></clipPath><clipPath id="a48098a73b"><rect x="0" width="152" y="0" height="28"/></clipPath><clipPath id="75dc323d23"><rect x="0" width="375" y="0" height="131"/></clipPath></defs><g transform="matrix(1, 0, 0, 1, 0, 13)"><g clip-path="url(#75dc323d23)"><g clip-path="url(#87f0d638e5)"><path fill="#cfa604" d="M 404.261719 123.234375 C 406.273438 123.234375 407.902344 124.867188 407.902344 126.875 C 407.902344 128.886719 406.273438 130.519531 404.261719 130.519531 L 30.234375 130.519531 C 26.636719 130.519531 23.359375 129.046875 20.992188 126.675781 C 18.621094 124.308594 17.148438 121.035156 17.148438 117.433594 L 17.148438 71.417969 L 10.660156 71.417969 C 8.125 71.417969 6.039062 70.753906 4.410156 69.652344 C 2.605469 68.433594 1.410156 66.710938 0.808594 64.75 L 0.804688 64.753906 C 0.25 62.933594 0.230469 60.929688 0.730469 58.988281 C 1.328125 56.667969 2.664062 54.40625 4.695312 52.652344 L 60.460938 4.582031 C 63.132812 2.28125 66.59375 1.132812 70.015625 1.132812 C 73.441406 1.132812 76.902344 2.28125 79.570312 4.582031 L 117.046875 36.996094 C 118.5625 38.308594 118.726562 40.601562 117.417969 42.117188 C 116.105469 43.636719 113.8125 43.800781 112.292969 42.488281 L 74.816406 10.074219 C 73.535156 8.972656 71.792969 8.417969 70.015625 8.417969 C 68.238281 8.417969 66.496094 8.972656 65.210938 10.074219 L 9.449219 58.148438 C 8.570312 58.902344 8 59.84375 7.761719 60.777344 C 7.59375 61.4375 7.585938 62.078125 7.75 62.617188 L 7.746094 62.617188 L 7.75 62.632812 C 7.871094 63.019531 8.113281 63.371094 8.476562 63.617188 C 8.953125 63.9375 9.671875 64.132812 10.660156 64.132812 L 20.792969 64.132812 C 22.800781 64.132812 24.433594 65.765625 24.433594 67.777344 L 24.433594 117.433594 C 24.433594 119.023438 25.089844 120.476562 26.140625 121.527344 C 27.191406 122.578125 28.644531 123.234375 30.234375 123.234375 Z M 404.261719 123.234375 " fill-opacity="1" fill-rule="nonzero"/></g><g transform="matrix(1, 0, 0, 1, 37, 12)"><g clip-path="url(#fbe26d0206)"><g fill="#cfa604" fill-opacity="1"><g transform="translate(1.141302, 79.114733)"><g><path d="M 23.484375 0.765625 C 19.816406 0.765625 16.550781 0.3125 13.6875 -0.59375 C 10.820312 -1.5 8.429688 -2.6875 6.515625 -4.15625 C 4.609375 -5.632812 3.148438 -7.257812 2.140625 -9.03125 L 7.90625 -16.0625 L 8.8125 -16.0625 C 10.40625 -13.6875 12.425781 -11.796875 14.875 -10.390625 C 17.332031 -8.992188 20.203125 -8.296875 23.484375 -8.296875 C 26.285156 -8.296875 28.398438 -8.890625 29.828125 -10.078125 C 31.253906 -11.265625 31.96875 -12.894531 31.96875 -14.96875 C 31.96875 -16.226562 31.738281 -17.28125 31.28125 -18.125 C 30.820312 -18.96875 30.0625 -19.691406 29 -20.296875 C 27.9375 -20.898438 26.5 -21.421875 24.6875 -21.859375 L 17.875 -23.421875 C 13.113281 -24.503906 9.566406 -26.304688 7.234375 -28.828125 C 4.898438 -31.359375 3.734375 -34.640625 3.734375 -38.671875 C 3.734375 -41.671875 4.484375 -44.304688 5.984375 -46.578125 C 7.484375 -48.847656 9.660156 -50.609375 12.515625 -51.859375 C 15.378906 -53.117188 18.804688 -53.75 22.796875 -53.75 C 26.878906 -53.75 30.375 -53.210938 33.28125 -52.140625 C 36.195312 -51.066406 38.660156 -49.414062 40.671875 -47.1875 L 35.484375 -40.09375 L 34.578125 -40.09375 C 33.078125 -41.664062 31.359375 -42.84375 29.421875 -43.625 C 27.492188 -44.40625 25.285156 -44.796875 22.796875 -44.796875 C 19.921875 -44.796875 17.734375 -44.285156 16.234375 -43.265625 C 14.734375 -42.253906 13.984375 -40.859375 13.984375 -39.078125 C 13.984375 -37.410156 14.507812 -36.078125 15.5625 -35.078125 C 16.613281 -34.085938 18.429688 -33.316406 21.015625 -32.765625 L 27.984375 -31.3125 C 33.128906 -30.226562 36.859375 -28.382812 39.171875 -25.78125 C 41.492188 -23.1875 42.65625 -19.800781 42.65625 -15.625 C 42.65625 -12.3125 41.941406 -9.425781 40.515625 -6.96875 C 39.097656 -4.519531 36.953125 -2.617188 34.078125 -1.265625 C 31.203125 0.0859375 27.671875 0.765625 23.484375 0.765625 Z M 23.484375 0.765625 "/></g></g></g><g fill="#cfa604" fill-opacity="1"><g transform="translate(43.170286, 79.114733)"><g><path d="M 39.515625 -17.71875 L 13.8125 -17.71875 C 14.101562 -14.238281 15.09375 -11.707031 16.78125 -10.125 C 18.46875 -8.539062 20.773438 -7.75 23.703125 -7.75 C 26.003906 -7.75 27.863281 -8.175781 29.28125 -9.03125 C 30.707031 -9.894531 31.859375 -11.195312 32.734375 -12.9375 L 33.5 -12.9375 L 40.15625 -8.65625 C 38.851562 -5.851562 36.882812 -3.582031 34.25 -1.84375 C 31.613281 -0.101562 28.097656 0.765625 23.703125 0.765625 C 19.566406 0.765625 15.992188 -0.0195312 12.984375 -1.59375 C 9.984375 -3.164062 7.664062 -5.503906 6.03125 -8.609375 C 4.40625 -11.710938 3.59375 -15.5 3.59375 -19.96875 C 3.59375 -24.507812 4.445312 -28.335938 6.15625 -31.453125 C 7.875 -34.578125 10.191406 -36.90625 13.109375 -38.4375 C 16.035156 -39.96875 19.328125 -40.734375 22.984375 -40.734375 C 28.640625 -40.734375 32.96875 -39.234375 35.96875 -36.234375 C 38.976562 -33.242188 40.484375 -28.847656 40.484375 -23.046875 C 40.484375 -20.953125 40.410156 -19.320312 40.265625 -18.15625 Z M 30.875 -24.21875 C 30.78125 -27.257812 30.070312 -29.472656 28.75 -30.859375 C 27.4375 -32.253906 25.515625 -32.953125 22.984375 -32.953125 C 17.910156 -32.953125 14.925781 -30.039062 14.03125 -24.21875 Z M 30.875 -24.21875 "/></g></g></g><g fill="#cfa604" fill-opacity="1"><g transform="translate(83.133566, 79.114733)"><g><path d="M 5.765625 16.203125 L 5.765625 -39.984375 L 15.796875 -39.984375 L 15.796875 -34.765625 L 16.5625 -34.609375 C 17.75 -36.640625 19.332031 -38.164062 21.3125 -39.1875 C 23.289062 -40.21875 25.609375 -40.734375 28.265625 -40.734375 C 31.484375 -40.734375 34.296875 -39.972656 36.703125 -38.453125 C 39.109375 -36.929688 40.976562 -34.617188 42.3125 -31.515625 C 43.65625 -28.410156 44.328125 -24.5625 44.328125 -19.96875 C 44.328125 -15.40625 43.617188 -11.578125 42.203125 -8.484375 C 40.796875 -5.390625 38.832031 -3.070312 36.3125 -1.53125 C 33.800781 0 30.90625 0.765625 27.625 0.765625 C 25.132812 0.765625 22.984375 0.347656 21.171875 -0.484375 C 19.359375 -1.316406 17.820312 -2.617188 16.5625 -4.390625 L 15.796875 -4.234375 L 15.796875 16.203125 Z M 24.828125 -7.75 C 27.828125 -7.75 30.097656 -8.726562 31.640625 -10.6875 C 33.191406 -12.644531 33.96875 -15.738281 33.96875 -19.96875 C 33.96875 -24.195312 33.191406 -27.296875 31.640625 -29.265625 C 30.097656 -31.234375 27.828125 -32.21875 24.828125 -32.21875 C 22.023438 -32.21875 19.800781 -31.203125 18.15625 -29.171875 C 16.507812 -27.148438 15.6875 -24.082031 15.6875 -19.96875 C 15.6875 -15.882812 16.507812 -12.828125 18.15625 -10.796875 C 19.800781 -8.765625 22.023438 -7.75 24.828125 -7.75 Z M 24.828125 -7.75 "/></g></g></g><g fill="#cfa604" fill-opacity="1"><g transform="translate(127.518187, 79.114733)"><g><path d="M 27.578125 -9.53125 L 30.1875 -2.109375 C 29.101562 -1.210938 27.738281 -0.507812 26.09375 0 C 24.457031 0.507812 22.597656 0.765625 20.515625 0.765625 C 16.191406 0.765625 12.90625 -0.410156 10.65625 -2.765625 C 8.40625 -5.128906 7.28125 -8.554688 7.28125 -13.046875 L 7.28125 -32.046875 L 1.203125 -32.046875 L 1.203125 -40.015625 L 7.28125 -40.015625 L 7.28125 -47.8125 L 17.328125 -49.4375 L 17.328125 -40.015625 L 28.671875 -40.015625 L 28.671875 -32.046875 L 17.328125 -32.046875 L 17.328125 -13.78125 C 17.328125 -11.789062 17.738281 -10.34375 18.5625 -9.4375 C 19.382812 -8.53125 20.578125 -8.078125 22.140625 -8.078125 C 23.929688 -8.078125 25.492188 -8.5625 26.828125 -9.53125 Z M 27.578125 -9.53125 "/></g></g></g><g fill="#cfa604" fill-opacity="1"><g transform="translate(155.087216, 79.114733)"><g><path d="M 10.765625 -44.765625 C 8.953125 -44.765625 7.476562 -45.3125 6.34375 -46.40625 C 5.207031 -47.507812 4.640625 -48.929688 4.640625 -50.671875 C 4.640625 -52.390625 5.207031 -53.796875 6.34375 -54.890625 C 7.476562 -55.992188 8.953125 -56.546875 10.765625 -56.546875 C 11.972656 -56.546875 13.046875 -56.289062 13.984375 -55.78125 C 14.929688 -55.269531 15.664062 -54.570312 16.1875 -53.6875 C 16.707031 -52.8125 16.96875 -51.804688 16.96875 -50.671875 C 16.96875 -49.535156 16.707031 -48.519531 16.1875 -47.625 C 15.664062 -46.726562 14.929688 -46.023438 13.984375 -45.515625 C 13.046875 -45.015625 11.972656 -44.765625 10.765625 -44.765625 Z M 5.765625 0 L 5.765625 -39.984375 L 15.796875 -39.984375 L 15.796875 0 Z M 5.765625 0 "/></g></g></g><g fill="#cfa604" fill-opacity="1"><g transform="translate(173.124989, 79.114733)"><g><path d="M 5.765625 0 L 5.765625 -39.984375 L 15.40625 -39.984375 L 15.40625 -34.609375 L 16.171875 -34.46875 C 17.472656 -36.625 19 -38.207031 20.75 -39.21875 C 22.5 -40.226562 24.738281 -40.734375 27.46875 -40.734375 C 30.488281 -40.734375 32.914062 -40.132812 34.75 -38.9375 C 36.59375 -37.75 37.9375 -36.003906 38.78125 -33.703125 L 39.546875 -33.703125 C 40.773438 -36.097656 42.363281 -37.867188 44.3125 -39.015625 C 46.257812 -40.160156 48.679688 -40.734375 51.578125 -40.734375 C 59.867188 -40.734375 64.015625 -36.117188 64.015625 -26.890625 L 64.015625 0 L 53.96875 0 L 53.96875 -25.625 C 53.96875 -27.96875 53.507812 -29.660156 52.59375 -30.703125 C 51.675781 -31.742188 50.203125 -32.265625 48.171875 -32.265625 C 42.660156 -32.265625 39.90625 -28.578125 39.90625 -21.203125 L 39.90625 0 L 29.875 0 L 29.875 -25.625 C 29.875 -27.96875 29.40625 -29.660156 28.46875 -30.703125 C 27.539062 -31.742188 26.0625 -32.265625 24.03125 -32.265625 C 21.445312 -32.265625 19.425781 -31.398438 17.96875 -29.671875 C 16.519531 -27.941406 15.796875 -25.191406 15.796875 -21.421875 L 15.796875 0 Z M 5.765625 0 "/></g></g></g><g fill="#cfa604" fill-opacity="1"><g transform="translate(238.782778, 79.114733)"><g><path d="M 10.765625 -44.765625 C 8.953125 -44.765625 7.476562 -45.3125 6.34375 -46.40625 C 5.207031 -47.507812 4.640625 -48.929688 4.640625 -50.671875 C 4.640625 -52.390625 5.207031 -53.796875 6.34375 -54.890625 C 7.476562 -55.992188 8.953125 -56.546875 10.765625 -56.546875 C 11.972656 -56.546875 13.046875 -56.289062 13.984375 -55.78125 C 14.929688 -55.269531 15.664062 -54.570312 16.1875 -53.6875 C 16.707031 -52.8125 16.96875 -51.804688 16.96875 -50.671875 C 16.96875 -49.535156 16.707031 -48.519531 16.1875 -47.625 C 15.664062 -46.726562 14.929688 -46.023438 13.984375 -45.515625 C 13.046875 -45.015625 11.972656 -44.765625 10.765625 -44.765625 Z M 5.765625 0 L 5.765625 -39.984375 L 15.796875 -39.984375 L 15.796875 0 Z M 5.765625 0 "/></g></g></g><g fill="#cfa604" fill-opacity="1"><g transform="translate(256.820551, 79.114733)"><g><path d="M 18.3125 0.765625 C 13.8125 0.765625 10.488281 -0.457031 8.34375 -2.90625 C 6.207031 -5.363281 5.140625 -8.890625 5.140625 -13.484375 L 5.140625 -39.984375 L 15.1875 -39.984375 L 15.1875 -14.75 C 15.1875 -12.3125 15.710938 -10.53125 16.765625 -9.40625 C 17.816406 -8.28125 19.441406 -7.71875 21.640625 -7.71875 C 24.421875 -7.71875 26.582031 -8.628906 28.125 -10.453125 C 29.675781 -12.273438 30.453125 -15.144531 30.453125 -19.0625 L 30.453125 -39.984375 L 40.484375 -39.984375 L 40.484375 0 L 30.84375 0 L 30.84375 -5.875 L 30.078125 -6.046875 C 28.804688 -3.753906 27.242188 -2.046875 25.390625 -0.921875 C 23.546875 0.203125 21.1875 0.765625 18.3125 0.765625 Z M 18.3125 0.765625 "/></g></g></g><g fill="#cfa604" fill-opacity="1"><g transform="translate(299.574334, 79.114733)"><g><path d="M 18.703125 0.765625 C 15.972656 0.765625 13.472656 0.445312 11.203125 -0.1875 C 8.929688 -0.832031 6.988281 -1.71875 5.375 -2.84375 C 3.769531 -3.96875 2.582031 -5.253906 1.8125 -6.703125 L 7.390625 -12.71875 L 8.15625 -12.71875 C 9.488281 -10.9375 11.0625 -9.597656 12.875 -8.703125 C 14.6875 -7.804688 16.65625 -7.359375 18.78125 -7.359375 C 20.738281 -7.359375 22.210938 -7.707031 23.203125 -8.40625 C 24.191406 -9.101562 24.6875 -10.109375 24.6875 -11.421875 C 24.6875 -12.429688 24.328125 -13.28125 23.609375 -13.96875 C 22.898438 -14.65625 21.75 -15.195312 20.15625 -15.59375 L 14.859375 -16.859375 C 10.898438 -17.796875 8.003906 -19.238281 6.171875 -21.1875 C 4.347656 -23.132812 3.4375 -25.601562 3.4375 -28.59375 C 3.4375 -31.082031 4.070312 -33.242188 5.34375 -35.078125 C 6.613281 -36.921875 8.398438 -38.320312 10.703125 -39.28125 C 13.015625 -40.25 15.707031 -40.734375 18.78125 -40.734375 C 22.375 -40.734375 25.351562 -40.210938 27.71875 -39.171875 C 30.09375 -38.140625 31.945312 -36.753906 33.28125 -35.015625 L 27.90625 -29.21875 L 27.1875 -29.21875 C 26.070312 -30.46875 24.816406 -31.382812 23.421875 -31.96875 C 22.035156 -32.550781 20.488281 -32.84375 18.78125 -32.84375 C 14.8125 -32.84375 12.828125 -31.609375 12.828125 -29.140625 C 12.828125 -28.097656 13.195312 -27.25 13.9375 -26.59375 C 14.675781 -25.945312 15.972656 -25.421875 17.828125 -25.015625 L 22.765625 -23.921875 C 26.828125 -23.054688 29.789062 -21.660156 31.65625 -19.734375 C 33.53125 -17.816406 34.46875 -15.238281 34.46875 -12 C 34.46875 -9.457031 33.835938 -7.21875 32.578125 -5.28125 C 31.328125 -3.351562 29.515625 -1.863281 27.140625 -0.8125 C 24.773438 0.238281 21.960938 0.765625 18.703125 0.765625 Z M 18.703125 0.765625 "/></g></g></g><g fill="#cfa604" fill-opacity="1"><g transform="translate(332.945065, 79.114733)"><g/></g></g></g></g><g transform="matrix(1, 0, 0, 1, 216, 97)"><g clip-path="url(#a48098a73b)"><g fill="#cfa604" fill-opacity="1"><g transform="translate(0.74022, 18.839997)"><g><path d="M 3.890625 -5.03125 L 3.890625 0 L 1.140625 0 L 1.140625 -13.609375 L 5.5625 -13.609375 C 7.15625 -13.609375 8.363281 -13.269531 9.1875 -12.59375 C 10.007812 -11.925781 10.421875 -10.898438 10.421875 -9.515625 C 10.421875 -7.921875 10.007812 -6.773438 9.1875 -6.078125 C 8.363281 -5.378906 7.160156 -5.03125 5.578125 -5.03125 Z M 3.890625 -11.296875 L 3.890625 -7.359375 L 5.578125 -7.359375 C 6.285156 -7.359375 6.8125 -7.503906 7.15625 -7.796875 C 7.507812 -8.085938 7.6875 -8.660156 7.6875 -9.515625 C 7.6875 -9.878906 7.640625 -10.171875 7.546875 -10.390625 C 7.453125 -10.617188 7.316406 -10.800781 7.140625 -10.9375 C 6.972656 -11.070312 6.757812 -11.164062 6.5 -11.21875 C 6.238281 -11.269531 5.929688 -11.296875 5.578125 -11.296875 Z M 3.890625 -11.296875 "/></g></g></g><g fill="#cfa604" fill-opacity="1"><g transform="translate(15.913342, 18.839997)"><g><path d="M 10.421875 -9.75 C 10.421875 -8.644531 10.179688 -7.765625 9.703125 -7.109375 C 9.234375 -6.453125 8.539062 -6.003906 7.625 -5.765625 L 10.984375 0 L 7.859375 0 L 4.625 -5.546875 L 3.890625 -5.546875 L 3.890625 0 L 1.140625 0 L 1.140625 -13.609375 L 5.78125 -13.609375 C 7.3125 -13.609375 8.46875 -13.269531 9.25 -12.59375 C 10.03125 -11.914062 10.421875 -10.96875 10.421875 -9.75 Z M 3.890625 -11.296875 L 3.890625 -7.859375 L 5.78125 -7.859375 C 6.425781 -7.859375 6.90625 -7.984375 7.21875 -8.234375 C 7.53125 -8.492188 7.6875 -8.972656 7.6875 -9.671875 C 7.6875 -10.160156 7.53125 -10.550781 7.21875 -10.84375 C 6.90625 -11.144531 6.425781 -11.296875 5.78125 -11.296875 Z M 3.890625 -11.296875 "/></g></g></g><g fill="#cfa604" fill-opacity="1"><g transform="translate(31.066997, 18.839997)"><g><path d="M 6.890625 0.1875 C 5.984375 0.1875 5.160156 0.078125 4.421875 -0.140625 C 3.679688 -0.367188 3.046875 -0.753906 2.515625 -1.296875 C 1.992188 -1.847656 1.585938 -2.570312 1.296875 -3.46875 C 1.003906 -4.363281 0.859375 -5.476562 0.859375 -6.8125 C 0.859375 -8.144531 1.003906 -9.257812 1.296875 -10.15625 C 1.585938 -11.050781 1.992188 -11.769531 2.515625 -12.3125 C 3.046875 -12.851562 3.679688 -13.238281 4.421875 -13.46875 C 5.160156 -13.695312 5.984375 -13.8125 6.890625 -13.8125 C 7.796875 -13.8125 8.617188 -13.695312 9.359375 -13.46875 C 10.109375 -13.238281 10.742188 -12.851562 11.265625 -12.3125 C 11.796875 -11.769531 12.207031 -11.050781 12.5 -10.15625 C 12.789062 -9.257812 12.9375 -8.144531 12.9375 -6.8125 C 12.9375 -5.476562 12.789062 -4.363281 12.5 -3.46875 C 12.207031 -2.570312 11.796875 -1.847656 11.265625 -1.296875 C 10.742188 -0.753906 10.109375 -0.367188 9.359375 -0.140625 C 8.617188 0.078125 7.796875 0.1875 6.890625 0.1875 Z M 6.890625 -2.125 C 7.378906 -2.125 7.828125 -2.191406 8.234375 -2.328125 C 8.640625 -2.472656 8.988281 -2.722656 9.28125 -3.078125 C 9.570312 -3.441406 9.796875 -3.921875 9.953125 -4.515625 C 10.109375 -5.117188 10.1875 -5.882812 10.1875 -6.8125 C 10.1875 -7.726562 10.109375 -8.488281 9.953125 -9.09375 C 9.796875 -9.695312 9.570312 -10.175781 9.28125 -10.53125 C 8.988281 -10.882812 8.640625 -11.132812 8.234375 -11.28125 C 7.828125 -11.425781 7.378906 -11.5 6.890625 -11.5 C 6.390625 -11.5 5.9375 -11.425781 5.53125 -11.28125 C 5.132812 -11.132812 4.789062 -10.882812 4.5 -10.53125 C 4.207031 -10.175781 3.984375 -9.695312 3.828125 -9.09375 C 3.671875 -8.488281 3.59375 -7.726562 3.59375 -6.8125 C 3.59375 -5.882812 3.671875 -5.117188 3.828125 -4.515625 C 3.984375 -3.921875 4.207031 -3.441406 4.5 -3.078125 C 4.789062 -2.722656 5.132812 -2.472656 5.53125 -2.328125 C 5.9375 -2.191406 6.390625 -2.125 6.890625 -2.125 Z M 6.890625 -2.125 "/></g></g></g><g fill="#cfa604" fill-opacity="1"><g transform="translate(48.671696, 18.839997)"><g><path d="M 3.890625 -5.03125 L 3.890625 0 L 1.140625 0 L 1.140625 -13.609375 L 5.5625 -13.609375 C 7.15625 -13.609375 8.363281 -13.269531 9.1875 -12.59375 C 10.007812 -11.925781 10.421875 -10.898438 10.421875 -9.515625 C 10.421875 -7.921875 10.007812 -6.773438 9.1875 -6.078125 C 8.363281 -5.378906 7.160156 -5.03125 5.578125 -5.03125 Z M 3.890625 -11.296875 L 3.890625 -7.359375 L 5.578125 -7.359375 C 6.285156 -7.359375 6.8125 -7.503906 7.15625 -7.796875 C 7.507812 -8.085938 7.6875 -8.660156 7.6875 -9.515625 C 7.6875 -9.878906 7.640625 -10.171875 7.546875 -10.390625 C 7.453125 -10.617188 7.316406 -10.800781 7.140625 -10.9375 C 6.972656 -11.070312 6.757812 -11.164062 6.5 -11.21875 C 6.238281 -11.269531 5.929688 -11.296875 5.578125 -11.296875 Z M 3.890625 -11.296875 "/></g></g></g><g fill="#cfa604" fill-opacity="1"><g transform="translate(63.844818, 18.839997)"><g><path d="M 3.890625 -5.65625 L 3.890625 -2.3125 L 10.1875 -2.3125 L 10.1875 0 L 1.140625 0 L 1.140625 -13.609375 L 10 -13.609375 L 10 -11.296875 L 3.890625 -11.296875 L 3.890625 -7.96875 L 9.703125 -7.96875 L 9.703125 -5.65625 Z M 3.890625 -5.65625 "/></g></g></g><g fill="#cfa604" fill-opacity="1"><g transform="translate(78.628878, 18.839997)"><g><path d="M 10.421875 -9.75 C 10.421875 -8.644531 10.179688 -7.765625 9.703125 -7.109375 C 9.234375 -6.453125 8.539062 -6.003906 7.625 -5.765625 L 10.984375 0 L 7.859375 0 L 4.625 -5.546875 L 3.890625 -5.546875 L 3.890625 0 L 1.140625 0 L 1.140625 -13.609375 L 5.78125 -13.609375 C 7.3125 -13.609375 8.46875 -13.269531 9.25 -12.59375 C 10.03125 -11.914062 10.421875 -10.96875 10.421875 -9.75 Z M 3.890625 -11.296875 L 3.890625 -7.859375 L 5.78125 -7.859375 C 6.425781 -7.859375 6.90625 -7.984375 7.21875 -8.234375 C 7.53125 -8.492188 7.6875 -8.972656 7.6875 -9.671875 C 7.6875 -10.160156 7.53125 -10.550781 7.21875 -10.84375 C 6.90625 -11.144531 6.425781 -11.296875 5.78125 -11.296875 Z M 3.890625 -11.296875 "/></g></g></g><g fill="#cfa604" fill-opacity="1"><g transform="translate(93.782533, 18.839997)"><g><path d="M 7.078125 -11.296875 L 7.078125 0 L 4.34375 0 L 4.34375 -11.296875 L 0.703125 -11.296875 L 0.703125 -13.609375 L 10.71875 -13.609375 L 10.71875 -11.296875 Z M 7.078125 -11.296875 "/></g></g></g><g fill="#cfa604" fill-opacity="1"><g transform="translate(109.033447, 18.839997)"><g><path d="M 6.484375 -11.296875 L 5.078125 -11.296875 L 5.078125 -2.3125 L 6.484375 -2.3125 L 6.484375 0 L 0.9375 0 L 0.9375 -2.3125 L 2.328125 -2.3125 L 2.328125 -11.296875 L 0.9375 -11.296875 L 0.9375 -13.609375 L 6.484375 -13.609375 Z M 6.484375 -11.296875 "/></g></g></g><g fill="#cfa604" fill-opacity="1"><g transform="translate(120.277096, 18.839997)"><g><path d="M 3.890625 -5.65625 L 3.890625 -2.3125 L 10.1875 -2.3125 L 10.1875 0 L 1.140625 0 L 1.140625 -13.609375 L 10 -13.609375 L 10 -11.296875 L 3.890625 -11.296875 L 3.890625 -7.96875 L 9.703125 -7.96875 L 9.703125 -5.65625 Z M 3.890625 -5.65625 "/></g></g></g><g fill="#cfa604" fill-opacity="1"><g transform="translate(135.061156, 18.839997)"><g><path d="M 10.890625 -3.96875 C 10.890625 -3.175781 10.753906 -2.515625 10.484375 -1.984375 C 10.222656 -1.453125 9.859375 -1.023438 9.390625 -0.703125 C 8.929688 -0.378906 8.390625 -0.148438 7.765625 -0.015625 C 7.140625 0.117188 6.476562 0.1875 5.78125 0.1875 C 4.800781 0.1875 3.882812 0.0625 3.03125 -0.1875 C 2.175781 -0.4375 1.421875 -0.75 0.765625 -1.125 L 1.828125 -3.328125 C 2.191406 -3.085938 2.523438 -2.890625 2.828125 -2.734375 C 3.128906 -2.585938 3.429688 -2.46875 3.734375 -2.375 C 4.046875 -2.28125 4.363281 -2.210938 4.6875 -2.171875 C 5.007812 -2.140625 5.367188 -2.125 5.765625 -2.125 C 6.460938 -2.125 7.035156 -2.253906 7.484375 -2.515625 C 7.929688 -2.773438 8.15625 -3.234375 8.15625 -3.890625 C 8.15625 -4.253906 8.050781 -4.539062 7.84375 -4.75 C 7.644531 -4.96875 7.378906 -5.144531 7.046875 -5.28125 C 6.722656 -5.414062 6.347656 -5.53125 5.921875 -5.625 C 5.503906 -5.71875 5.070312 -5.820312 4.625 -5.9375 C 4.1875 -6.050781 3.753906 -6.195312 3.328125 -6.375 C 2.910156 -6.5625 2.535156 -6.8125 2.203125 -7.125 C 1.878906 -7.445312 1.613281 -7.847656 1.40625 -8.328125 C 1.207031 -8.816406 1.109375 -9.425781 1.109375 -10.15625 C 1.109375 -10.78125 1.226562 -11.320312 1.46875 -11.78125 C 1.71875 -12.238281 2.054688 -12.617188 2.484375 -12.921875 C 2.910156 -13.234375 3.410156 -13.457031 3.984375 -13.59375 C 4.566406 -13.738281 5.191406 -13.8125 5.859375 -13.8125 C 6.828125 -13.8125 7.703125 -13.707031 8.484375 -13.5 C 9.265625 -13.289062 9.960938 -13.035156 10.578125 -12.734375 L 9.671875 -10.5625 C 9.203125 -10.8125 8.648438 -11.03125 8.015625 -11.21875 C 7.378906 -11.40625 6.660156 -11.5 5.859375 -11.5 C 5.285156 -11.5 4.804688 -11.382812 4.421875 -11.15625 C 4.046875 -10.9375 3.859375 -10.601562 3.859375 -10.15625 C 3.859375 -9.613281 4.03125 -9.207031 4.375 -8.9375 C 4.726562 -8.675781 5.160156 -8.472656 5.671875 -8.328125 C 6.191406 -8.179688 6.753906 -8.046875 7.359375 -7.921875 C 7.972656 -7.804688 8.539062 -7.609375 9.0625 -7.328125 C 9.582031 -7.054688 10.015625 -6.660156 10.359375 -6.140625 C 10.710938 -5.628906 10.890625 -4.90625 10.890625 -3.96875 Z M 10.890625 -3.96875 "/></g></g></g></g></g></g></g></svg>